<svg width="25" height="24" viewBox="0 0 25 24" fill="none" xmlns="http://www.w3.org/2000/svg">
<path d="M24.7619 12.0733C24.7619 5.40541 19.3565 -1.90735e-06 12.6886 -1.90735e-06C6.02065 -1.90735e-06 0.615234 5.40541 0.615234 12.0733C0.615234 18.0995 5.03028 23.0943 10.8021 24V15.5633H7.73661V12.0733H10.8021V9.41343C10.8021 6.38755 12.6046 4.71615 15.3624 4.71615C16.6833 4.71615 18.065 4.95195 18.065 4.95195V7.92313H16.5426C15.0427 7.92313 14.575 8.85379 14.575 9.80857V12.0733H17.9235L17.3882 15.5633H14.575V24C20.3469 23.0943 24.7619 18.0995 24.7619 12.0733Z" fill="white"/>
</svg>
