<svg width="25" height="24" viewBox="0 0 25 24" fill="none" xmlns="http://www.w3.org/2000/svg">
<path d="M12.7624 0C9.50345 0 9.09447 0.0142502 7.81451 0.0725002C6.53704 0.131 5.66507 0.33325 4.90209 0.63C4.11287 0.9365 3.44339 1.3465 2.77641 2.01375C2.10893 2.68075 1.69894 3.35025 1.39145 4.13925C1.09396 4.9025 0.891465 5.77475 0.833966 7.05175C0.776718 8.33175 0.761719 8.741 0.761719 12C0.761719 15.259 0.776219 15.6668 0.834217 16.9468C0.892965 18.2243 1.09521 19.0962 1.3917 19.8592C1.69844 20.6485 2.10843 21.318 2.77566 21.985C3.44239 22.6525 4.11187 23.0635 4.90059 23.37C5.66407 23.6667 6.53629 23.869 7.81351 23.9275C9.09347 23.9858 9.5022 24 12.7609 24C16.02 24 16.4277 23.9858 17.7077 23.9275C18.9852 23.869 19.8581 23.6667 20.6216 23.37C21.4106 23.0635 22.0791 22.6525 22.7458 21.985C23.4133 21.318 23.8233 20.6485 24.1308 19.8595C24.4258 19.0963 24.6282 18.224 24.6882 16.947C24.7457 15.667 24.7607 15.259 24.7607 12C24.7607 8.741 24.7457 8.332 24.6882 7.052C24.6282 5.7745 24.4258 4.9025 24.1308 4.1395C23.8233 3.35025 23.4133 2.68075 22.7458 2.01375C22.0783 1.34625 21.4108 0.93625 20.6209 0.63C19.8559 0.33325 18.9834 0.131 17.706 0.0725002C16.426 0.0142502 16.0185 0 12.7586 0H12.7624ZM11.6859 2.1625C12.0054 2.162 12.3619 2.1625 12.7624 2.1625C15.9663 2.1625 16.346 2.174 17.6112 2.2315C18.7812 2.285 19.4162 2.4805 19.8391 2.64475C20.3991 2.86225 20.7984 3.12225 21.2181 3.54225C21.6381 3.96225 21.8981 4.36225 22.1161 4.92225C22.2803 5.34475 22.4761 5.97975 22.5293 7.14975C22.5868 8.41475 22.5993 8.79475 22.5993 11.9972C22.5993 15.1997 22.5868 15.5797 22.5293 16.8447C22.4758 18.0147 22.2803 18.6497 22.1161 19.0723C21.8986 19.6322 21.6381 20.031 21.2181 20.4508C20.7981 20.8708 20.3994 21.1307 19.8391 21.3482C19.4167 21.5133 18.7812 21.7083 17.6112 21.7617C16.3462 21.8193 15.9663 21.8318 12.7624 21.8318C9.5582 21.8318 9.17846 21.8193 7.9135 21.7617C6.74354 21.7077 6.10856 21.5122 5.68532 21.348C5.12534 21.1305 4.72535 20.8705 4.30536 20.4505C3.88537 20.0305 3.62538 19.6315 3.40739 19.0713C3.24314 18.6488 3.0474 18.0138 2.99415 16.8438C2.93665 15.5787 2.92515 15.1987 2.92515 11.9942C2.92515 8.78975 2.93665 8.41175 2.99415 7.14675C3.04765 5.97675 3.24314 5.34175 3.40739 4.91875C3.62488 4.35875 3.88537 3.95875 4.30536 3.53875C4.72535 3.11875 5.12534 2.85875 5.68532 2.64075C6.10831 2.47575 6.74354 2.28075 7.9135 2.227C9.02047 2.177 9.44946 2.162 11.6859 2.1595V2.1625ZM19.1677 4.155C18.3727 4.155 17.7277 4.79925 17.7277 5.5945C17.7277 6.3895 18.3727 7.0345 19.1677 7.0345C19.9626 7.0345 20.6076 6.3895 20.6076 5.5945C20.6076 4.7995 19.9626 4.1545 19.1677 4.1545V4.155ZM12.7624 5.8375C9.35921 5.8375 6.60004 8.59675 6.60004 12C6.60004 15.4032 9.35921 18.1612 12.7624 18.1612C16.1655 18.1612 18.9237 15.4032 18.9237 12C18.9237 8.59675 16.1653 5.8375 12.7621 5.8375H12.7624ZM12.7624 8C14.9713 8 16.7622 9.79075 16.7622 12C16.7622 14.209 14.9713 16 12.7624 16C10.5532 16 8.76248 14.209 8.76248 12C8.76248 9.79075 10.5532 8 12.7624 8Z" fill="white"/>
</svg>
