<svg width="25" height="24" viewBox="0 0 25 24" fill="none" xmlns="http://www.w3.org/2000/svg">
<path d="M21.414 20.4496H17.8224V14.8805C17.8224 13.5525 17.7985 11.8429 15.9545 11.8429C14.0839 11.8429 13.7977 13.2899 13.7977 14.7838V20.4492H10.2061V8.99689H13.654V10.562H13.7023C14.0473 9.97782 14.5459 9.49726 15.145 9.17149C15.7441 8.84572 16.4211 8.68693 17.1041 8.71203C20.7443 8.71203 21.4155 11.0828 21.4155 14.167L21.414 20.4496ZM6.15366 7.43144C5.74144 7.43151 5.33845 7.31055 4.99566 7.08385C4.65287 6.85715 4.38569 6.53489 4.22787 6.15783C4.07006 5.78077 4.0287 5.36584 4.10904 4.96551C4.18939 4.56517 4.38784 4.19743 4.67927 3.90876C4.9707 3.6201 5.34203 3.42348 5.74632 3.34378C6.1506 3.26408 6.56967 3.30488 6.95054 3.46101C7.33141 3.61713 7.65696 3.88158 7.88604 4.22091C8.11512 4.56025 8.23743 4.95922 8.23751 5.36738C8.23756 5.63839 8.18369 5.90675 8.07899 6.15715C7.97429 6.40754 7.82083 6.63507 7.62733 6.82674C7.43382 7.0184 7.20407 7.17045 6.95122 7.27421C6.69837 7.37796 6.42736 7.43139 6.15366 7.43144ZM7.94943 20.4496H4.35415V8.99689H7.94943V20.4496ZM23.2045 0.00163516H2.54941C2.0806 -0.00360329 1.62884 0.175664 1.29345 0.500042C0.958054 0.824421 0.766464 1.26737 0.760742 1.73156V22.2681C0.766268 22.7325 0.957746 23.1758 1.29313 23.5005C1.62851 23.8252 2.08036 24.0048 2.54941 23.9999H23.2045C23.6745 24.0057 24.1276 23.8266 24.4643 23.5019C24.801 23.1772 24.9938 22.7334 25.0003 22.2681V1.73008C24.9936 1.26497 24.8007 0.821515 24.464 0.497144C24.1272 0.172773 23.6743 -0.00598143 23.2045 0.000152822" fill="white"/>
</svg>
