<svg width="25" height="24" viewBox="0 0 25 24" fill="none" xmlns="http://www.w3.org/2000/svg">
<path d="M3.01562 3.60039C3.01562 3.28213 3.14205 2.97691 3.3671 2.75186C3.59214 2.52682 3.89737 2.40039 4.21563 2.40039H6.79923C7.08327 2.40052 7.35806 2.50141 7.57472 2.6851C7.79137 2.8688 7.93584 3.12339 7.98243 3.40359L8.87043 8.72559C8.91286 8.97905 8.8728 9.23944 8.75614 9.46843C8.63949 9.69741 8.4524 9.8829 8.22243 9.99759L6.36483 10.9252C7.03095 12.576 8.02303 14.0755 9.28176 15.3343C10.5405 16.593 12.04 17.5851 13.6908 18.2512L14.6196 16.3936C14.7343 16.1638 14.9195 15.9769 15.1483 15.8603C15.377 15.7436 15.6371 15.7034 15.8904 15.7456L21.2124 16.6336C21.4926 16.6802 21.7472 16.8246 21.9309 17.0413C22.1146 17.258 22.2155 17.5327 22.2156 17.8168V20.4004C22.2156 20.7187 22.0892 21.0239 21.8642 21.2489C21.6391 21.474 21.3339 21.6004 21.0156 21.6004H18.6156C9.99963 21.6004 3.01562 14.6164 3.01562 6.00039V3.60039Z" fill="white"/>
</svg>
